<?xml version="1.0" encoding="UTF-8"?>
<svg version="1.1" xmlns="http://www.w3.org/2000/svg" width="512" height="512">
<path d="M0 0 C3.88961173 0.01709138 7.7786079 0.00693885 11.66819859 -0.0103159 C42.70645884 -0.12748663 42.70645884 -0.12748663 56.17138672 3.39111328 C57.06164551 3.61541016 57.9519043 3.83970703 58.86914062 4.07080078 C61.02673997 4.66575193 63.12356485 5.33495624 65.23388672 6.07861328 C66.34038574 6.46098145 66.34038574 6.46098145 67.46923828 6.85107422 C98.60619711 17.99328651 123.58021026 40.73910091 138.17138672 70.39111328 C142.90845368 81.00005626 146.27982863 91.92536117 148.17138672 103.39111328 C148.35443359 104.45458984 148.53748047 105.51806641 148.72607422 106.61376953 C151.02949071 126.15239891 149.31182553 144.14192681 137.03076172 160.18798828 C127.04498342 171.71004017 114.55803157 180.23465047 99.17138672 182.39111328 C93.12183307 182.69543603 87.07822145 182.68557727 81.0222168 182.68164062 C79.18155649 182.6876317 77.34089868 182.69443857 75.50024414 182.70199585 C70.51857745 182.71960564 65.53697955 182.72434915 60.55528474 182.72562742 C57.43692648 182.72705261 54.3185855 182.73132919 51.20023155 182.73662186 C40.30413078 182.75510663 29.40807882 182.76329455 18.51196289 182.76171875 C8.38329266 182.76051829 -1.74516417 182.78160604 -11.87378043 182.81320608 C-20.59259001 182.83943041 -29.31133016 182.85008344 -38.03017884 182.84880793 C-43.22734581 182.84830004 -48.42432303 182.85388695 -53.62145042 182.87516403 C-58.51437641 182.89465004 -63.40693371 182.89460057 -68.29987335 182.88013077 C-70.08555711 182.87805426 -71.87126459 182.88267367 -73.65690804 182.89485168 C-93.25966454 183.01977697 -109.67368081 178.59239937 -124.02783203 164.44580078 C-136.012913 151.87915667 -140.32438317 135.93376435 -140.03564453 118.98876953 C-139.28462613 97.57783382 -133.1536337 76.59683207 -121.82861328 58.39111328 C-121.48024414 57.82408691 -121.131875 57.25706055 -120.77294922 56.67285156 C-111.12993268 41.31658814 -97.4408798 27.60580376 -81.82861328 18.39111328 C-81.1952002 18.0155127 -80.56178711 17.63991211 -79.90917969 17.25292969 C-72.17699148 12.7348914 -64.30679147 8.92092409 -55.82861328 6.01611328 C-55.17868408 5.78964111 -54.52875488 5.56316895 -53.85913086 5.32983398 C-51.53343068 4.58573296 -49.19920675 3.97771862 -46.82861328 3.39111328 C-45.2769043 2.98723389 -45.2769043 2.98723389 -43.69384766 2.57519531 C-29.3327785 -0.56512652 -14.62320299 -0.0648765 0 0 Z " fill="#8e9297" transform="translate(165.82861328125,260.60888671875)"/>
<path d="M0 0 C1.26416748 0.00829834 2.52833496 0.01659668 3.83081055 0.02514648 C31.69895451 0.52543068 55.18153751 11.89760461 74.75 31.4375 C75.47832031 32.15421875 76.20664063 32.8709375 76.95703125 33.609375 C95.72263764 53.30030715 102.42520733 79.3577104 102.22045898 105.81762695 C101.98314385 115.49438873 100.97065603 124.30507988 97.75 133.4375 C97.50330566 134.14793457 97.25661133 134.85836914 97.00244141 135.59033203 C93.49201921 145.41477329 89.06923695 154.07865859 82.75 162.4375 C82.0384375 163.38238281 81.326875 164.32726562 80.59375 165.30078125 C64.66335836 185.57837483 41.04876549 199.34958492 15.4296875 203.12109375 C-14.03549522 205.65472411 -41.43875644 199.8419944 -64.67773438 180.77392578 C-84.98093872 163.51620209 -98.29000278 140.13280207 -101.25 113.4375 C-102.45032961 92.14623671 -99.95018062 73.49630558 -90.25 54.4375 C-89.72664063 53.39207031 -89.20328125 52.34664062 -88.6640625 51.26953125 C-76.49301472 28.79762108 -54.87622151 11.76277662 -30.60791016 4.10083008 C-20.36486371 1.21924412 -10.63399365 -0.09103587 0 0 Z " fill="#8e9297" transform="translate(170.25,47.5625)"/>
<path d="M0 0 C1.53299577 -0.00644935 3.06599038 -0.01317918 4.59898376 -0.02017212 C7.80031173 -0.03207852 11.00153236 -0.03586009 14.20288086 -0.03466797 C17.44855124 -0.03450582 20.69365482 -0.04833848 23.93920898 -0.07568359 C59.5549043 -0.37120473 87.92056252 4.96847164 114.58984375 30.5234375 C133.21846249 49.5987227 142.54686485 74.35666803 143.40234375 100.7109375 C143.10650598 118.49818371 136.56582933 132.77529911 124.02734375 145.3359375 C123.46273437 145.91214844 122.898125 146.48835937 122.31640625 147.08203125 C111.82489542 156.93381581 97.37439399 160.84060448 83.32348633 160.67651367 C81.81415024 160.67717079 81.81415024 160.67717079 80.27432251 160.67784119 C76.98996718 160.67577213 73.70613976 160.65253068 70.421875 160.62890625 C68.12831399 160.62330359 65.83474937 160.61903666 63.54118347 160.61604309 C57.53573509 160.60464711 51.53050806 160.5752254 45.52514648 160.54193115 C39.38463331 160.51111672 33.24408401 160.49751353 27.10351562 160.48242188 C15.07802832 160.45035041 3.05270452 160.39921805 -8.97265625 160.3359375 C-8.96414642 159.39354721 -8.9556366 158.45115692 -8.9468689 157.48020935 C-8.91892231 153.93266637 -8.89867799 150.38524298 -8.88339233 146.83763123 C-8.87529707 145.31179439 -8.86426688 143.78596985 -8.85006714 142.26017761 C-8.74058783 130.18054758 -9.63173999 118.98631214 -12.97265625 107.3359375 C-13.17101074 106.59988281 -13.36936523 105.86382812 -13.57373047 105.10546875 C-22.32281785 73.19948899 -43.17885247 45.42090947 -69.97265625 26.3359375 C-52.33225255 6.93149343 -25.19257653 0.02525467 0 0 Z " fill="#8e9297" transform="translate(342.97265625,239.6640625)"/>
<path d="M0 0 C15.67734088 12.95429516 25.59852647 31.79221571 28.31640625 51.9140625 C29.80616134 74.62835582 25.65372146 95.96483725 10.4375 113.61328125 C9.38755859 114.75216797 9.38755859 114.75216797 8.31640625 115.9140625 C7.54425781 116.76613281 6.77210938 117.61820313 5.9765625 118.49609375 C0.33621123 124.43940228 -5.55709145 128.89768115 -12.68359375 132.9140625 C-13.4725 133.37554687 -14.26140625 133.83703125 -15.07421875 134.3125 C-33.24512829 144.24031481 -54.96966786 145.04268535 -74.68359375 139.9140625 C-96.20825232 133.3263587 -112.81177743 119.46368401 -123.68359375 99.9140625 C-124.07546875 99.25535156 -124.46734375 98.59664063 -124.87109375 97.91796875 C-125.89622685 95.38963568 -125.74586614 93.74268396 -125.43359375 91.0390625 C-125.32660156 90.06453125 -125.21960938 89.09 -125.109375 88.0859375 C-124.82219609 85.94658637 -124.50639629 83.81090841 -124.1640625 81.6796875 C-121.95857061 67.90726334 -122.11265076 55.13072035 -124.6159668 41.42114258 C-126.12598335 33.10753811 -126.25589137 27.68026678 -121.62109375 20.4765625 C-121.20843262 19.81769043 -120.79577148 19.15881836 -120.37060547 18.47998047 C-108.33937424 -0.3703458 -90.02824467 -11.68017265 -68.68359375 -17.0859375 C-44.07824032 -22.33687476 -19.58050101 -15.11579661 0 0 Z " fill="#8e9297" transform="translate(414.68359375,87.0859375)"/>
</svg>
