<?xml version="1.0" encoding="UTF-8"?>
<svg version="1.1" xmlns="http://www.w3.org/2000/svg" width="512" height="512">
<path d="M0 0 C1.45108658 0.00273422 1.45108658 0.00273422 2.93148804 0.00552368 C17.26440977 0.05095174 31.21023917 0.55983928 45.3125 3.3125 C46.65803955 3.55395752 46.65803955 3.55395752 48.03076172 3.80029297 C96.71843124 12.61028149 141.74255908 36.05356547 177.3125 70.3125 C178.3015332 71.26068604 178.3015332 71.26068604 179.31054688 72.22802734 C188.79880305 81.37247479 197.5387044 90.66984009 205.3125 101.3125 C206.17056152 102.46355017 207.02863451 103.61459177 207.88671875 104.765625 C213.92427396 112.95525981 219.30707302 121.45788276 224.3125 130.3125 C224.7146875 131.01971191 225.116875 131.72692383 225.53125 132.45556641 C238.54775099 155.57510937 247.281052 180.72419753 252.625 206.6875 C252.77235596 207.39801514 252.91971191 208.10853027 253.0715332 208.84057617 C256.05794017 224.48291051 256.68730954 240.11926093 256.625 256 C256.62226578 257.45108658 256.62226578 257.45108658 256.61947632 258.93148804 C256.57404826 273.26440977 256.06516072 287.21023917 253.3125 301.3125 C253.15152832 302.20952637 252.99055664 303.10655273 252.82470703 304.03076172 C244.01471851 352.71843124 220.57143453 397.74255908 186.3125 433.3125 C185.68037598 433.97185547 185.04825195 434.63121094 184.39697266 435.31054688 C175.25252521 444.79880305 165.95515991 453.5387044 155.3125 461.3125 C154.16144983 462.17056152 153.01040823 463.02863451 151.859375 463.88671875 C143.66974019 469.92427396 135.16711724 475.30707302 126.3125 480.3125 C125.60528809 480.7146875 124.89807617 481.116875 124.16943359 481.53125 C101.04989063 494.54775099 75.90080247 503.281052 49.9375 508.625 C49.22698486 508.77235596 48.51646973 508.91971191 47.78442383 509.0715332 C32.14208949 512.05794017 16.50573907 512.68730954 0.625 512.625 C-0.34239105 512.62317719 -1.3097821 512.62135437 -2.30648804 512.61947632 C-16.63940977 512.57404826 -30.58523917 512.06516072 -44.6875 509.3125 C-45.58452637 509.15152832 -46.48155273 508.99055664 -47.40576172 508.82470703 C-96.09343124 500.01471851 -141.11755908 476.57143453 -176.6875 442.3125 C-177.34685547 441.68037598 -178.00621094 441.04825195 -178.68554688 440.39697266 C-188.17380305 431.25252521 -196.9137044 421.95515991 -204.6875 411.3125 C-205.54556152 410.16144983 -206.40363451 409.01040823 -207.26171875 407.859375 C-213.29927396 399.66974019 -218.68207302 391.16711724 -223.6875 382.3125 C-224.0896875 381.60528809 -224.491875 380.89807617 -224.90625 380.16943359 C-237.92275099 357.04989063 -246.656052 331.90080247 -252 305.9375 C-252.22103394 304.87172729 -252.22103394 304.87172729 -252.4465332 303.78442383 C-255.43294017 288.14208949 -256.06230954 272.50573907 -256 256.625 C-255.99817719 255.65760895 -255.99635437 254.6902179 -255.99447632 253.69351196 C-255.94904826 239.36059023 -255.44016072 225.41476083 -252.6875 211.3125 C-252.44604248 209.96696045 -252.44604248 209.96696045 -252.19970703 208.59423828 C-243.38971851 159.90656876 -219.94643453 114.88244092 -185.6875 79.3125 C-185.05537598 78.65314453 -184.42325195 77.99378906 -183.77197266 77.31445312 C-174.62752521 67.82619695 -165.33015991 59.0862956 -154.6875 51.3125 C-153.53644983 50.45443848 -152.38540823 49.59636549 -151.234375 48.73828125 C-143.04474019 42.70072604 -134.54211724 37.31792698 -125.6875 32.3125 C-124.98028809 31.9103125 -124.27307617 31.508125 -123.54443359 31.09375 C-100.42489063 18.07724901 -75.27580247 9.343948 -49.3125 4 C-48.24672729 3.77896606 -48.24672729 3.77896606 -47.15942383 3.5534668 C-31.51708949 0.56705983 -15.88073907 -0.06230954 0 0 Z M-138.6875 79.3125 C-139.66976562 80.09238281 -140.65203125 80.87226562 -141.6640625 81.67578125 C-156.30269475 93.52577471 -169.61333994 107.07830764 -180.6875 122.3125 C-181.31527344 123.15683594 -181.94304687 124.00117187 -182.58984375 124.87109375 C-191.28417174 136.87754668 -198.43007949 149.89800021 -204.6875 163.3125 C-205.18830078 164.37863525 -205.18830078 164.37863525 -205.69921875 165.46630859 C-229.80138525 217.5145216 -230.89098522 279.15143243 -211.75 332.8984375 C-203.35470712 355.43186633 -191.83803283 376.59555856 -176.6875 395.3125 C-175.90761719 396.29476563 -175.12773437 397.27703125 -174.32421875 398.2890625 C-162.47422529 412.92769475 -148.92169236 426.23833994 -133.6875 437.3125 C-132.84316406 437.94027344 -131.99882812 438.56804687 -131.12890625 439.21484375 C-119.12245332 447.90917174 -106.10199979 455.05507949 -92.6875 461.3125 C-91.62136475 461.81330078 -91.62136475 461.81330078 -90.53369141 462.32421875 C-38.4854784 486.42638525 23.15143243 487.51598522 76.8984375 468.375 C99.43186633 459.97970712 120.59555856 448.46303283 139.3125 433.3125 C140.29476563 432.53261719 141.27703125 431.75273437 142.2890625 430.94921875 C156.92769475 419.09922529 170.23833994 405.54669236 181.3125 390.3125 C181.94027344 389.46816406 182.56804687 388.62382812 183.21484375 387.75390625 C191.90917174 375.74745332 199.05507949 362.72699979 205.3125 349.3125 C205.81330078 348.24636475 205.81330078 348.24636475 206.32421875 347.15869141 C230.42638525 295.1104784 231.51598522 233.47356757 212.375 179.7265625 C203.97970712 157.19313367 192.46303283 136.02944144 177.3125 117.3125 C176.53261719 116.33023438 175.75273437 115.34796875 174.94921875 114.3359375 C163.09922529 99.69730525 149.54669236 86.38666006 134.3125 75.3125 C133.46816406 74.68472656 132.62382812 74.05695313 131.75390625 73.41015625 C119.74745332 64.71582826 106.72699979 57.56992051 93.3125 51.3125 C92.24636475 50.81169922 92.24636475 50.81169922 91.15869141 50.30078125 C17.09261482 16.00271784 -75.39621224 28.08101349 -138.6875 79.3125 Z " fill="#8e9297" transform="translate(255.6875,-0.3125)"/>
<path d="M0 0 C1.14443667 -0.00623996 2.28887335 -0.01247993 3.46798992 -0.01890898 C7.29958943 -0.03485298 11.13055406 -0.02222842 14.9621582 -0.00964355 C17.71043204 -0.01286376 20.45867898 -0.02204166 23.2069397 -0.03088379 C29.89468872 -0.048656 36.58225802 -0.04483489 43.27001405 -0.03323323 C48.70601515 -0.02419404 54.14196595 -0.022977 59.57797241 -0.02732849 C60.7391699 -0.02824789 60.7391699 -0.02824789 61.92382592 -0.02918586 C63.49653508 -0.03046478 65.06924422 -0.03176164 66.64195335 -0.03307623 C81.38395155 -0.04447822 96.1258502 -0.03137432 110.86783206 -0.00987476 C123.51293073 0.00799589 136.1578825 0.00489168 148.80297852 -0.0135498 C163.4927719 -0.03496327 178.18247807 -0.04337962 192.87228489 -0.03110075 C194.43915874 -0.02982657 196.00603261 -0.02856909 197.57290649 -0.02732849 C198.34380747 -0.02671139 199.11470845 -0.02609429 199.90897006 -0.02545848 C205.33747719 -0.02200701 210.76592893 -0.02782956 216.19442749 -0.0372467 C222.81137673 -0.04847337 229.4281362 -0.04541272 236.04506373 -0.02412373 C239.42025353 -0.0136219 242.7948656 -0.01163443 246.17009354 -0.02272034 C249.83067166 -0.03363573 253.49035775 -0.01995874 257.15087891 0 C258.2151797 -0.00892289 259.2794805 -0.01784577 260.37603283 -0.02703905 C266.6573077 0.03948057 270.4452726 0.80702816 275.57543945 4.50793457 C279.31488167 8.80032689 280.09072537 13.85180346 279.8293457 19.38293457 C279.74555664 20.41418457 279.66176758 21.44543457 279.57543945 22.50793457 C279.5314502 23.15633301 279.48746094 23.80473145 279.44213867 24.47277832 C278.14743223 42.89008149 274.28735545 60.68358952 266.57543945 77.50793457 C266.27766602 78.16100586 265.97989258 78.81407715 265.6730957 79.48693848 C249.26998791 115.04118509 219.46467635 143.21716596 182.91137695 157.38293457 C172.42109238 161.17998253 161.54184397 163.54969553 150.57543945 165.50793457 C149.5287207 165.70129395 148.48200195 165.89465332 147.40356445 166.09387207 C105.4767779 170.62881021 64.82627818 158.65230382 31.90356445 132.44055176 C1.22546092 106.97412269 -17.53651683 70.87294232 -21.73706055 31.32043457 C-22.00484568 28.38495957 -22.22504795 25.44873568 -22.42456055 22.50793457 C-22.50834961 21.47668457 -22.59213867 20.44543457 -22.6784668 19.38293457 C-22.93984647 13.85180346 -22.16400276 8.80032689 -18.42456055 4.50793457 C-12.33407123 0.11425077 -7.37658163 -0.0618438 0 0 Z M10.57543945 31.50793457 C11.23183634 38.07190345 11.80389984 43.32217363 13.82543945 49.38293457 C14.04941406 50.06927979 14.27338867 50.755625 14.50415039 51.46276855 C24.61433624 81.89612954 45.38159153 107.94662859 74.20166016 122.57971191 C89.80160477 130.14787554 105.31337648 134.25251181 122.57543945 135.50793457 C124.05657227 135.61621582 124.05657227 135.61621582 125.56762695 135.72668457 C157.32425086 136.80622986 187.30399123 123.96371939 210.27856445 102.67199707 C211.41551758 101.60078613 211.41551758 101.60078613 212.57543945 100.50793457 C213.58864258 99.59141113 213.58864258 99.59141113 214.62231445 98.65637207 C231.49861202 82.79265236 242.92683196 59.27173604 246.57543945 36.50793457 C246.57543945 34.85793457 246.57543945 33.20793457 246.57543945 31.50793457 C168.69543945 31.50793457 90.81543945 31.50793457 10.57543945 31.50793457 Z " fill="#8e9297" transform="translate(127.424560546875,266.4920654296875)"/>
<path d="M0 0 C4.22829051 4.48717995 6.74654126 8.21195382 7.3125 14.4375 C6.83727178 19.85510165 5.07073418 23.27845466 1 26.8125 C-3.47948826 30.07879352 -7.55860327 30.70798842 -13 30 C-16.50304877 28.37821816 -19.32111032 26.48615864 -22.44921875 24.24609375 C-23.31160156 23.62863281 -24.17398438 23.01117188 -25.0625 22.375 C-25.85785156 21.78460938 -26.65320313 21.19421875 -27.47265625 20.5859375 C-34.9972068 15.86419481 -44.22917805 15.70300161 -52.74609375 17.6171875 C-58.75823663 19.79117837 -63.62878221 23.396998 -68.65234375 27.29296875 C-72.79235771 30.30326176 -77.02343916 30.64951437 -82 30 C-87.31747978 28.12387306 -90.42807968 25.04492063 -93 20 C-94.33639503 14.74987665 -94.04453297 11.01839912 -92 6 C-89.875 3.5 -89.875 3.5 -87 1 C-86.44441406 0.45472656 -85.88882812 -0.09054688 -85.31640625 -0.65234375 C-61.52243524 -23.2590896 -24.14762175 -19.55862417 0 0 Z " fill="#8e9297" transform="translate(400,185)"/>
<path d="M0 0 C3.60971169 3.35187514 5.22108874 5.93725819 6.5 10.6875 C6.67773323 16.01949691 5.78402448 20.95491599 2.19140625 25.0859375 C-2.11127848 28.79847844 -5.69996578 29.75102521 -11.33203125 29.6484375 C-16.12238679 29.153831 -19.47456347 26.38384486 -23.125 23.5 C-31.88165505 16.87468174 -40.47179437 15.20607913 -51.375 16.4375 C-58.18203246 18.13395669 -63.5103604 22.52148754 -68.9921875 26.73046875 C-73.19571081 29.74184528 -77.35239949 29.95312819 -82.375 29.4375 C-87.64094344 27.57893173 -90.16895768 24.83435804 -93.375 20.4375 C-95.02731649 15.48055052 -94.98372155 11.22160396 -92.875 6.4375 C-86.43819202 -5.2207746 -72.99232838 -10.66518799 -60.98828125 -14.58203125 C-38.74066996 -20.61895064 -17.65500913 -13.83770986 0 0 Z " fill="#8e9297" transform="translate(199.375,185.5625)"/>
</svg>
